PathFileType	4	(X/Y/Z)	 s04c0001.trc
DataRate	CameraRate	NumFrames	NumMarkers	Units	OrigDataRate	OrigDataStartFrame	OrigNumFrames
200	200	4	49	mm	200	1001	2000
Frame#	Time	racr			lacr			c7			jug			rlel			rdr			llel			ldr			s2			lic			ric			lasi			rasi			rpsi			lpsi			rgt			lgt			rth1			rth2			rth3			rth4			rlfc			rmfc			rsh1			rsh2			rsh3			rsh4			rlmal			rmmal			rcal			rtoe			rmt5			rmt1			lth1			lth2			lth4			lth3			llfc			lmfc			lsh1			lsh2			lsh3			lsh4			llmal			lmmal			lcal			ltoe			lmt1			lmt5			
		X1	Y1	Z1	X2	Y2	Z2	X3	Y3	Z3	X4	Y4	Z4	X5	Y5	Z5	X6	Y6	Z6	X7	Y7	Z7	X8	Y8	Z8	X9	Y9	Z9	X10	Y10	Z10	X11	Y11	Z11	X12	Y12	Z12	X13	Y13	Z13	X14	Y14	Z14	X15	Y15	Z15	X16	Y16	Z16	X17	Y17	Z17	X18	Y18	Z18	X19	Y19	Z19	X20	Y20	Z20	X21	Y21	Z21	X22	Y22	Z22	X23	Y23	Z23	X24	Y24	Z24	X25	Y25	Z25	X26	Y26	Z26	X27	Y27	Z27	X28	Y28	Z28	X29	Y29	Z29	X30	Y30	Z30	X31	Y31	Z31	X32	Y32	Z32	X33	Y33	Z33	X34	Y34	Z34	X35	Y35	Z35	X36	Y36	Z36	X37	Y37	Z37	X38	Y38	Z38	X39	Y39	Z39	X40	Y40	Z40	X41	Y41	Z41	X42	Y42	Z42	X43	Y43	Z43	X44	Y44	Z44	X45	Y45	Z45	X46	Y46	Z46	X47	Y47	Z47	X48	Y48	Z48	X49	Y49	Z49	
1001	5.0050	171.475660	1569.793911	287.375909	199.531850	1568.861363	-78.990884	114.905218	1592.338257	88.089178	252.991644	1535.336836	101.849513	101.267979	1231.498522	391.732056	218.180394	993.078429	504.548622	161.418564	1255.717519	-199.139057	299.079168	996.123000	-279.992028	67.539738	1053.935009	97.504991	243.741123	1114.534850	-46.417738	204.369137	1101.425509	272.491236	290.455587	1057.816556	5.528979	269.816258	1060.360685	230.531915	83.227539	1089.222464	141.823879	85.297908	1085.511826	62.664083	168.991676	1000.883135	277.009062	192.254171	956.183832	-68.517866	183.391850	865.576399	298.750662	197.958014	778.904239	288.919281	170.724425	698.797244	279.341859	232.843662	777.841533	278.632130	155.898249	547.939022	249.351802	163.292185	525.328494	139.214477	106.948600	425.735266	267.881300	122.696610	336.205098	259.591749	89.480556	257.115918	242.818820	158.804115	335.349042	245.532786	89.296819	103.336862	231.469186	138.730042	111.303057	159.283069	48.258333	68.317672	168.046689	314.085334	83.308289	304.769212	232.203767	52.812548	326.666783	279.388492	49.893543	227.725842	195.403005	862.378421	-81.047672	214.651817	777.620943	-78.835808	249.975191	776.289678	-68.751912	188.516676	692.576940	-73.261387	167.417309	551.862024	-54.495438	193.071728	521.925397	49.994489	150.470198	423.648609	-80.845223	172.412591	339.762939	-68.296114	148.521515	253.997220	-67.812803	201.724324	341.075542	-42.066146	146.904085	104.587651	-63.877161	154.824491	100.159473	21.996175	80.146004	77.319145	-14.608695	376.956114	82.959563	-57.741028	312.834782	55.024281	0.014493	302.229700	43.162091	-111.014429	
1002	5.0100	171.508306	1569.793031	287.394849	199.561535	1568.834682	-78.971805	114.958046	1592.351878	88.145047	253.032286	1535.323724	101.879491	101.259106	1231.494237	391.744711	218.123650	993.055858	504.544972	161.456944	1255.704535	-199.097950	299.105699	996.097891	-279.944435	67.566495	1053.927308	97.507656	243.729744	1114.531750	-46.404076	204.388794	1101.427974	272.499517	290.481244	1057.810800	5.543434	269.836164	1060.348936	230.541036	83.250894	1089.219157	141.822866	85.311476	1085.515920	62.666777	169.001014	1000.868802	277.023065	192.274401	956.188310	-68.489224	183.399457	865.566015	298.762732	197.948073	778.892069	288.924825	170.714919	698.796060	279.336629	232.852374	777.848383	278.641960	155.893083	547.912233	249.355227	163.296342	525.305328	139.218367	106.933743	425.736639	267.880283	122.713366	336.206344	259.588879	89.475221	257.123022	242.824730	158.806168	335.355198	245.540028	89.305048	103.328274	231.475006	138.740433	111.283862	159.282968	48.261371	68.305443	168.055939	314.100533	83.303605	304.755208	232.216815	52.826982	326.679929	279.402268	49.896477	227.729665	195.393692	862.369371	-81.039111	214.662941	777.624877	-78.850046	249.992360	776.283437	-68.728154	188.509760	692.577691	-73.266813	167.415613	551.871283	-54.493591	193.066058	521.938485	50.014404	150.476135	423.648615	-80.849092	172.427696	339.769415	-68.287271	148.506746	253.995388	-67.810932	201.721102	341.055413	-42.059218	146.911074	104.562377	-63.897032	154.803944	100.199122	21.993581	80.145297	77.324215	-14.613023	376.951423	82.950938	-57.726171	312.831070	55.018897	0.002168	302.225354	43.166343	-110.982349	
1003	5.0150	171.549941	1569.782030	287.413688	199.595151	1568.831474	-78.943732	115.019481	1592.339507	88.109758	253.062742	1535.320378	101.920757	101.262342	1231.465514	391.740756	218.067073	993.025835	504.559800	161.480125	1255.691895	-199.076771	299.119455	996.073091	-279.928180	67.586222	1053.938700	97.511131	243.789839	1114.530950	-46.417167	204.379280	1101.419459	272.531087	290.492129	1057.798611	5.558634	269.836682	1060.345329	230.577087	83.277315	1089.216735	141.832927	85.349598	1085.518882	62.666268	169.006301	1000.870331	277.023134	192.299045	956.173055	-68.477578	183.404157	865.542678	298.782274	197.933692	778.887755	288.933792	170.700838	698.792994	279.351454	232.850967	777.835884	278.643848	155.883708	547.933451	249.356578	163.293295	525.315101	139.215406	106.931611	425.730722	267.876671	122.676744	336.231556	259.595019	89.464989	257.127337	242.808259	158.792896	335.339188	245.540738	89.308225	103.326649	231.464057	138.739499	111.299213	159.275030	48.252516	68.305050	168.050106	314.098299	83.302385	304.765874	232.202267	52.816981	326.673841	279.392822	49.886629	227.712947	195.417918	862.380669	-81.028462	214.684116	777.619478	-78.826648	249.992717	776.281520	-68.728694	188.518170	692.581293	-73.263231	167.429617	551.872083	-54.491517	193.088713	521.933385	50.018300	150.465545	423.644112	-80.856382	172.422457	339.763263	-68.291748	148.512016	253.990054	-67.816807	201.720560	341.056047	-42.053714	146.910525	104.569788	-63.866407	154.821202	100.195720	21.990367	80.139283	77.323032	-14.607802	376.956845	82.945706	-57.727183	312.828099	55.018330	0.004219	302.238875	43.161432	-110.994109	
1004	5.0200	171.587270	1569.758650	287.434353	199.621558	1568.797528	-78.914836	115.043352	1592.352780	88.149120	253.111499	1535.302352	101.929034	101.250058	1231.470290	391.746131	218.025510	993.000518	504.567372	161.512699	1255.670337	-199.050371	299.136452	996.066631	-279.900834	67.586694	1053.945393	97.506268	243.788809	1114.529740	-46.405456	204.393498	1101.416305	272.536569	290.511196	1057.794350	5.571269	269.842660	1060.344788	230.587099	83.290605	1089.231348	141.836488	85.364261	1085.517923	62.673748	169.017992	1000.863185	277.032568	192.316488	956.178094	-68.474248	183.394222	865.557770	298.781061	197.934825	778.886577	288.943887	170.691922	698.789352	279.354755	232.834495	777.837339	278.656204	155.887164	547.911283	249.361084	163.286462	525.317025	139.210814	106.924600	425.734034	267.867701	122.687296	336.228056	259.585823	89.477435	257.111825	242.811721	158.794811	335.355552	245.540945	89.306336	103.341028	231.465014	138.740176	111.292316	159.271084	48.254479	68.309142	168.041829	314.085224	83.315090	304.762324	232.201168	52.827962	326.668518	279.398746	49.885798	227.726950	195.423346	862.376703	-81.025699	214.687323	777.629900	-78.826697	250.005607	776.271648	-68.742384	188.524495	692.586170	-73.264620	167.418949	551.872198	-54.489320	193.088711	521.933388	50.018302	150.489087	423.643804	-80.835773	172.427626	339.766342	-68.276358	148.515982	253.991557	-67.807650	201.727765	341.054632	-42.052507	146.890463	104.583333	-63.904602	154.843231	100.193193	21.977050	80.145990	77.316378	-14.603873	376.940858	82.953843	-57.728339	312.838083	55.025583	0.008602	302.217567	43.161206	-110.992719	
